PathFileType	3	(X/Y/Z)	C:\Users\koon_\Desktop\
DataRate	CameraRate	NumFrames	NumMarkers	Units	OrigDataRate	OrigDataStartFrame	OrigNumFrames
100.0	100.0	7	27	mm	100.0	1	2463	
Frame#	Time	get:LFHD			get:RFHD			get:LBHD			get:RBHD			get:C7			get:T10			get:CLAV			get:STRN			get:RBAK			get:LSHO			get:LUPA			get:LELB			get:LFRA			get:LWRA			get:LWRB			get:LFIN			get:RSHO			get:RUPA			get:RELB			get:RFRA			get:RWRA			get:RWRB			get:RFIN			get:LASI			get:RASI			get:LPSI			get:RPSI			
		X1	Y1	Z1	X2	Y2	Z2	X3	Y3	Z3	X4	Y4	Z4	X5	Y5	Z5	X6	Y6	Z6	X7	Y7	Z7	X8	Y8	Z8	X9	Y9	Z9	X10	Y10	Z10	X11	Y11	Z11	X12	Y12	Z12	X13	Y13	Z13	X14	Y14	Z14	X15	Y15	Z15	X16	Y16	Z16	X17	Y17	Z17	X18	Y18	Z18	X19	Y19	Z19	X20	Y20	Z20	X21	Y21	Z21	X22	Y22	Z22	X23	Y23	Z23	X24	Y24	Z24	X25	Y25	Z25	X26	Y26	Z26	X27	Y27	Z27	
1	0	107.23823	1550.188	-19.445047	-33.861904	1550.2781	-19.57357	83.828087	1554.2001	-180.10625	-46.259171	1529.7114	-184.75342	38.289146	1332.1022	-215.63965	32.821609	1120.5204	-253.31551	36.528019	1275.5881	-26.395033	41.81765	1078.1428	21.675913	-38.485039	1255.989	-247.27654	176.7097	1344.5023	-144.54576	264.13806	1201.4916	-141.28569	287.7713	1002.123	-154.20149	296.75711	880.53058	-72.321503	271.71625	804.45367	-43.414177	310.89169	798.37976	-122.4215	335.38934	735.02917	-49.492176	-103.30669	1330.4364	-139.59308	-197.74928	1110.6709	-116.5017	-195.43411	994.33521	-177.06564	-222.78033	947.12079	-95.759903	-224.68123	797.18774	-59.553707	-231.84917	789.88934	-142.6562	-275.44156	722.74591	-76.08242	166.4624	889.45422	-9.6796885	-101.73421	875.95276	-18.012075	80.735909	940.27167	-230.86363	-9.4871378	939.08496	-235.55431
2	0.01	107.32078	1550.1842	-19.397278	-33.799091	1550.2684	-19.459364	83.835945	1554.2283	-180.04005	-46.241417	1529.7391	-184.63539	38.346493	1332.1456	-215.664	32.849075	1120.5463	-253.34009	36.550049	1275.5886	-26.374174	41.238838	1078.0345	21.802141	-38.486805	1255.9916	-247.22588	176.73816	1344.5052	-144.48927	264.17285	1201.4851	-141.25983	287.784	1002.1135	-154.13826	296.73526	880.50586	-72.289917	271.66446	804.40601	-43.386642	310.84372	798.35645	-122.38334	335.39047	735.04681	-49.414059	-103.26701	1330.4592	-139.63736	-197.73405	1110.6753	-116.43472	-195.38472	994.34399	-177.00606	-222.79443	947.17847	-95.714386	-224.67174	797.2298	-59.538723	-231.8558	789.9256	-142.52782	-275.44888	722.79376	-75.948486	166.5031	889.45477	-9.6871243	-101.71141	875.9566	-17.963219	80.758659	940.27802	-230.8896	-9.4852324	939.10138	-235.55283
3	0.02	107.42033	1550.1924	-19.354563	-33.730045	1550.2848	-19.384274	83.867157	1554.2406	-179.99614	-46.251007	1529.7756	-184.44388	38.409111	1332.1172	-215.54024	32.88884	1120.5562	-253.2529	36.583191	1275.6005	-26.256502	41.258553	1078.0204	21.830147	-38.452244	1256.0166	-247.19406	176.79054	1344.4954	-144.46175	264.17007	1201.4817	-141.18048	287.75851	1002.0982	-154.09531	296.67798	880.49017	-72.272514	271.64972	804.42151	-43.316795	310.82062	798.34784	-122.31787	335.39053	735.04681	-49.41407	-103.24396	1330.4677	-139.52429	-197.68848	1110.719	-116.33891	-195.39355	994.37451	-176.91612	-222.78902	947.21478	-95.628487	-224.64467	797.27502	-59.23505	-231.88351	789.90338	-142.39839	-275.47287	722.84589	-75.813637	166.53601	889.43585	-9.6906948	-101.682	875.93475	-17.944904	80.738564	940.28693	-230.85944	-9.5035467	939.10284	-235.49498
4	0.03	107.48638	1550.1479	-19.291777	-33.642025	1550.303	-19.292307	83.898178	1554.2665	-179.94278	-46.208374	1529.8375	-184.4743	38.428711	1332.1423	-215.50328	32.886383	1120.5369	-253.20274	36.606106	1275.6007	-26.171282	41.305775	1078.0266	21.89974	-38.435402	1256.0154	-247.12016	176.81815	1344.498	-144.39053	264.17984	1201.4552	-141.16904	287.76166	1002.0773	-154.06503	296.66718	880.4563	-72.221725	271.59317	804.38074	-43.332279	310.80539	798.34296	-122.28502	335.34497	735.0426	-49.392963	-103.19109	1330.4894	-139.51593	-197.64911	1110.7427	-116.30354	-195.40347	994.38611	-176.83496	-222.75984	947.22803	-95.456482	-224.71094	797.30334	-59.477501	-231.92732	789.92834	-142.28827	-275.46683	722.87891	-75.699471	166.55247	889.4162	-9.7114115	-101.68427	875.96301	-17.852634	80.759583	940.28638	-230.83846	-9.4866152	939.09326	-235.49586
5	0.04	107.58607	1550.1548	-19.271227	-33.564129	1550.2886	-19.240623	83.942207	1554.292	-179.91522	-46.270092	1529.8976	-184.40631	38.485954	1332.1378	-215.46657	32.893982	1120.5461	-253.11691	36.661621	1275.6025	-26.175756	41.360489	1078.0259	21.908556	-38.385597	1256.0366	-247.08321	176.85287	1344.472	-144.36029	264.19623	1201.4305	-141.08759	287.71759	1002.0733	-154.00691	296.61243	880.40533	-72.171242	271.55057	804.34644	-43.25375	310.7724	798.30621	-122.24673	335.32727	735.02362	-49.308449	-103.16929	1330.5076	-139.47415	-197.62224	1110.7434	-116.20729	-195.38196	994.37946	-176.7829	-222.7338	947.25214	-95.410103	-224.68965	797.3634	-59.32151	-231.90367	789.97205	-142.13858	-275.51993	722.91797	-75.542122	166.58298	889.42065	-9.6934147	-101.6482	875.97974	-17.873835	80.76162	940.28717	-230.83759	-9.4503937	939.10541	-235.45621
6	0.05	107.69765	1550.1321	-19.271175	-33.498615	1550.2894	-19.188166	83.970337	1554.2926	-179.85805	-46.241203	1529.9413	-184.30829	38.511959	1332.1553	-215.41008	32.94561	1120.5571	-253.08659	36.692345	1275.5627	-26.070522	41.384594	1077.9736	21.929386	-38.370232	1256.0151	-246.99812	176.89621	1344.4753	-144.3121	264.20172	1201.3931	-141.06773	287.70514	1002.0268	-153.96973	296.57932	880.37982	-72.109383	271.51239	804.27814	-43.229248	310.72775	798.26764	-122.17814	335.27249	735.01782	-49.297668	-103.14039	1330.4979	-139.3653	-197.58044	1110.7595	-116.09124	-195.39384	994.44037	-176.68658	-222.70853	947.29419	-95.266174	-224.71494	797.38763	-58.892399	-231.9568	789.96484	-142.03273	-275.55383	722.99231	-75.434662	166.58215	889.40674	-9.6873341	-101.63911	875.95868	-17.836611	80.789063	940.28192	-230.79315	-9.4494915	939.104	-235.44788
7	0.06	107.74695	1550.1383	-19.214674	-33.427349	1550.2915	-19.107998	83.996071	1554.307	-179.85207	-46.294243	1530.0193	-184.2664	38.560806	1332.1519	-215.38068	32.941216	1120.5311	-253.00526	36.743549	1275.562	-26.072144	41.41185	1077.9637	22.008202	-38.330425	1256.0573	-246.9716	176.92722	1344.446	-144.28423	264.22446	1201.3683	-141.03409	287.68311	1001.9921	-153.91615	296.53165	880.33411	-72.028961	271.44131	804.22626	-43.21656	310.68466	798.25592	-122.11313	335.23724	735.00671	-49.229397	-103.07984	1330.5466	-139.32541	-197.51982	1110.765	-115.96889	-195.39297	994.41931	-176.58131	-222.68195	947.32855	-95.147552	-224.73247	797.40271	-58.762554	-231.98361	789.97858	-141.94865	-275.5582	723.03662	-75.351501	166.63564	889.43054	-9.6692543	-101.61443	875.96149	-17.755754	80.812332	940.28217	-230.77072	-9.4572439	939.08813	-235.39502
